<?xml version="1.0" standalone="no"?>
<!DOCTYPE svg PUBLIC "-//W3C//DTD SVG 20010904//EN"
 "http://www.w3.org/TR/2001/REC-SVG-20010904/DTD/svg10.dtd">
<svg version="1.0" xmlns="http://www.w3.org/2000/svg"
 width="512.000000pt" height="512.000000pt" viewBox="0 0 512.000000 512.000000"
 preserveAspectRatio="xMidYMid meet">
<metadata>
Created by potrace 1.11, written by Peter Selinger 2001-2013
</metadata>
<g transform="translate(0.000000,512.000000) scale(0.100000,-0.100000)"
fill="#000000" stroke="none">
<path d="M1998 4950 c-16 -5 -28 -6 -28 -3 0 3 -6 1 -12 -3 -7 -5 -22 -9 -33
-9 -11 0 -23 -4 -27 -10 -5 -6 -8 -5 -8 3 0 9 -5 10 -19 2 -12 -6 -22 -6 -26
-1 -3 6 -17 4 -32 -4 -21 -11 -29 -12 -35 -2 -6 9 -8 9 -8 -2 0 -7 -6 -11 -14
-8 -8 3 -17 1 -20 -6 -3 -9 -5 -9 -5 0 -1 6 -10 9 -21 6 -11 -3 -17 -10 -13
-17 4 -6 0 -5 -9 2 -12 9 -18 10 -23 2 -4 -6 -13 -9 -21 -6 -8 3 -14 1 -14 -5
0 -6 -5 -7 -10 -4 -6 4 -18 1 -26 -6 -8 -6 -17 -9 -21 -5 -4 3 -17 -4 -30 -16
-22 -21 -24 -21 -18 -3 6 18 5 18 -7 4 -7 -9 -21 -15 -31 -13 -9 1 -15 -2 -11
-7 3 -5 -1 -9 -8 -9 -7 0 -24 -17 -38 -36 -14 -20 -32 -44 -42 -54 -9 -10 -13
-21 -10 -25 4 -4 -1 -13 -12 -20 -10 -8 -15 -18 -11 -24 3 -6 -2 -11 -12 -11
-15 0 -16 -2 -3 -10 13 -9 8 -14 -12 -11 -3 0 -5 -7 -3 -17 1 -9 -3 -23 -9
-31 -9 -12 -8 -13 4 -7 8 4 6 0 -5 -9 -11 -9 -20 -24 -20 -34 0 -10 -7 -26
-15 -36 -12 -15 -12 -17 -1 -10 11 6 12 5 5 -6 -12 -19 -12 -33 1 -41 6 -5 6
-8 -2 -8 -9 0 -10 -7 -3 -24 5 -13 6 -27 3 -30 -7 -7 28 -116 37 -116 4 0 7
-6 7 -12 0 -7 3 -25 6 -40 4 -20 2 -28 -8 -28 -9 0 -12 -6 -8 -17 4 -11 3 -14
-5 -9 -7 4 -15 1 -18 -8 -3 -9 -10 -14 -14 -11 -5 3 -12 -4 -15 -16 -5 -15 -9
-18 -15 -9 -11 18 -19 -2 -9 -27 5 -15 14 -20 31 -18 40 6 66 13 87 24 44 24
79 2 103 -65 7 -19 16 -34 20 -34 4 0 8 -6 8 -14 0 -8 14 -24 30 -36 39 -28
55 -57 41 -74 -6 -7 -8 -15 -5 -19 3 -3 -14 -11 -38 -18 -23 -7 -51 -19 -60
-27 -10 -8 -18 -12 -18 -7 0 4 -6 2 -13 -4 -8 -6 -17 -8 -20 -4 -4 3 -7 1 -7
-6 0 -7 -4 -9 -10 -6 -5 3 -10 2 -10 -2 0 -5 -12 -10 -26 -11 -15 -1 -34 -8
-42 -15 -13 -10 -14 -9 -8 1 6 9 3 12 -10 10 -11 -2 -22 -7 -25 -11 -3 -5 -19
-9 -35 -11 -16 -1 -35 -5 -42 -9 -6 -5 -17 -5 -22 -2 -5 3 -10 1 -10 -5 0 -6
-4 -9 -9 -5 -5 3 -13 1 -16 -5 -5 -8 -11 -8 -20 0 -9 8 -17 7 -26 -2 -8 -7
-25 -13 -39 -12 -14 0 -31 -4 -37 -9 -9 -6 -13 -6 -13 1 0 6 -7 9 -15 6 -8 -4
-13 -10 -10 -14 3 -5 -8 -5 -25 0 -17 5 -28 5 -25 0 6 -10 -23 -22 -36 -14 -5
3 -9 0 -9 -6 0 -6 -4 -9 -9 -6 -5 3 -20 -4 -35 -15 -24 -19 -26 -19 -26 -2 -1
16 -2 15 -13 -4 -7 -12 -15 -22 -19 -23 -34 -7 -47 -14 -52 -26 -3 -8 -12 -11
-22 -7 -10 3 -15 2 -12 -3 8 -12 -17 -35 -28 -26 -5 4 -2 -2 6 -13 8 -11 11
-17 6 -13 -8 7 -51 -31 -51 -45 0 -4 -7 -12 -15 -17 -8 -5 -12 -10 -7 -10 4 0
0 -11 -9 -25 -8 -13 -13 -28 -10 -34 3 -5 -1 -12 -10 -15 -10 -4 -14 -14 -11
-26 3 -11 0 -20 -6 -20 -8 0 -8 -3 1 -12 7 -7 8 -17 1 -30 -7 -13 -6 -18 3
-18 10 0 10 -2 -1 -9 -9 -6 -10 -10 -2 -16 9 -5 9 -10 1 -20 -7 -9 -7 -15 -1
-19 5 -4 8 -15 6 -26 -2 -12 0 -18 5 -15 5 3 11 1 15 -5 3 -5 1 -10 -5 -10 -7
0 -5 -6 4 -15 8 -8 13 -24 11 -35 -2 -12 2 -20 10 -20 8 0 11 -7 8 -20 -3 -11
0 -20 6 -20 6 0 11 -7 11 -15 0 -8 4 -15 9 -15 5 0 18 -16 30 -35 11 -19 27
-35 35 -35 9 0 18 -11 22 -25 3 -14 9 -23 14 -20 4 2 12 -7 19 -21 6 -14 16
-22 21 -19 6 3 10 -1 10 -10 0 -19 25 -47 34 -38 3 4 6 -4 6 -16 0 -17 4 -21
16 -17 12 4 14 1 9 -14 -4 -14 -2 -20 7 -18 7 2 12 -3 10 -10 -1 -8 2 -11 7
-7 10 6 37 -34 33 -48 -1 -5 1 -6 6 -3 5 3 15 -7 23 -22 8 -15 22 -35 33 -44
10 -10 14 -18 8 -18 -6 0 0 -11 13 -24 15 -15 23 -32 20 -45 -2 -12 0 -21 6
-21 5 0 9 -13 9 -30 0 -16 5 -30 10 -30 6 0 10 -9 10 -20 0 -11 5 -20 11 -20
7 0 9 -10 7 -25 -3 -13 -2 -22 3 -20 4 3 10 1 14 -5 3 -5 0 -10 -7 -10 -10 0
-9 -3 2 -9 8 -6 19 -7 25 -3 5 3 4 -2 -4 -11 -7 -9 -10 -17 -5 -17 5 0 18 -13
29 -28 15 -22 16 -24 2 -13 -15 12 -17 12 -11 -3 3 -9 10 -16 14 -16 4 0 11
-7 14 -16 4 -10 2 -13 -6 -8 -7 4 -2 -6 10 -23 16 -23 18 -33 10 -41 -9 -9 -9
-12 1 -12 7 0 9 -4 6 -10 -3 -5 1 -10 10 -10 9 0 13 -4 10 -10 -3 -5 0 -10 7
-10 15 0 38 -44 38 -72 0 -10 6 -18 13 -18 9 0 8 -3 -2 -9 -9 -6 -10 -11 -2
-15 6 -4 11 -16 11 -27 0 -10 4 -19 9 -19 5 0 12 -7 15 -16 3 -8 2 -12 -4 -9
-16 10 -12 -12 5 -28 11 -12 12 -17 2 -20 -9 -4 -9 -6 1 -6 7 -1 11 -5 8 -10
-3 -5 1 -14 9 -21 10 -8 11 -18 5 -35 -7 -19 -5 -27 8 -34 14 -8 14 -10 2 -11
-13 0 -13 -2 -1 -9 18 -12 23 -61 8 -80 -9 -12 -9 -13 1 -7 8 5 12 -2 12 -24
0 -17 5 -41 11 -52 10 -18 9 -20 -6 -14 -14 5 -15 3 -8 -6 6 -7 9 -23 8 -35
-1 -13 3 -23 9 -23 6 0 4 -5 -4 -10 -13 -9 -13 -10 0 -10 13 0 13 -1 0 -10
-13 -9 -13 -10 0 -10 13 0 13 -1 0 -10 -13 -9 -13 -10 0 -10 12 0 12 -2 1 -9
-9 -6 -10 -10 -2 -16 9 -5 9 -10 0 -21 -6 -8 -9 -23 -6 -34 3 -11 0 -20 -6
-20 -6 0 -7 -3 -4 -7 4 -3 2 -12 -4 -20 -9 -10 -8 -13 2 -13 9 0 10 -3 3 -8
-9 -6 -29 -47 -23 -47 1 0 -3 -10 -10 -23 -7 -12 -17 -20 -22 -16 -7 4 -7 -1
0 -15 7 -11 8 -21 3 -21 -7 0 -9 -17 -12 -84 -1 -11 -9 -26 -18 -33 -9 -8 -11
-11 -3 -7 10 5 12 3 5 -7 -13 -22 -14 -43 -1 -51 9 -6 9 -8 0 -8 -8 0 -13 -13
-13 -31 0 -21 -4 -28 -12 -23 -10 6 -10 4 0 -8 8 -10 9 -19 3 -22 -5 -4 -8
-16 -6 -28 3 -12 -1 -26 -8 -30 -9 -6 -9 -8 1 -8 6 0 12 -5 12 -11 0 -5 -4 -8
-8 -5 -4 2 -8 -4 -8 -15 0 -13 5 -18 16 -14 11 4 11 2 -2 -8 -10 -8 -15 -17
-11 -20 3 -4 6 -36 5 -72 0 -42 4 -65 11 -65 6 0 2 -7 -9 -15 -10 -8 -14 -14
-9 -13 9 3 16 -6 14 -17 -6 -21 -3 -51 4 -56 5 -4 4 -15 -1 -26 -8 -14 -8 -23
-1 -30 8 -8 7 -13 0 -17 -6 -4 -11 -13 -11 -19 0 -8 3 -8 9 1 6 10 10 7 13
-12 3 -16 1 -23 -5 -19 -6 4 -8 0 -4 -9 3 -9 0 -21 -6 -28 -9 -10 -9 -11 2 -5
11 6 13 4 8 -8 -4 -10 -10 -25 -13 -34 -5 -16 -4 -16 6 -3 10 13 11 12 6 -3
-3 -10 -6 -21 -6 -23 0 -3 -6 -2 -12 2 -9 5 -9 2 1 -9 7 -10 9 -17 3 -17 -6 0
-9 -8 -7 -17 1 -10 -2 -23 -7 -30 -5 -7 -6 -18 -2 -24 5 -8 3 -9 -6 -4 -10 6
-12 4 -7 -8 3 -9 2 -19 -3 -22 -5 -3 -7 -14 -5 -25 3 -13 -1 -17 -11 -13 -8 3
-14 0 -14 -6 0 -6 5 -11 11 -11 8 0 8 -4 -1 -15 -6 -8 -9 -19 -5 -25 3 -5 -2
-10 -12 -11 -11 0 -13 -3 -5 -6 6 -2 9 -10 5 -16 -23 -37 -33 -37 789 -37 691
0 799 2 789 14 -9 11 -9 16 0 21 8 5 8 9 0 14 -6 4 -12 24 -13 44 -2 20 -7 37
-12 37 -4 0 -6 9 -3 20 4 14 0 20 -11 20 -14 0 -14 2 -3 9 11 7 11 9 0 14 -11
4 -11 6 -1 6 10 1 10 5 -2 16 -8 9 -13 22 -10 30 4 8 2 15 -2 15 -5 0 -10 15
-11 33 -4 51 -6 57 -17 57 -6 0 -5 4 2 9 11 7 11 9 -2 14 -10 4 -13 13 -9 23
4 11 -1 22 -12 30 -14 10 -15 14 -4 14 12 1 12 2 -1 13 -13 11 -19 26 -22 65
-1 6 -5 12 -10 12 -4 0 -8 5 -8 11 0 5 6 7 13 4 6 -4 4 0 -5 8 -10 8 -15 17
-11 20 3 4 -2 16 -12 27 -14 15 -15 20 -4 20 10 1 9 3 -3 11 -10 5 -15 16 -12
24 4 8 1 15 -6 15 -6 0 -9 4 -6 9 4 5 0 12 -6 14 -10 4 -10 6 -1 6 7 1 10 8 7
16 -4 8 0 23 7 32 12 14 12 16 -1 8 -13 -8 -13 -6 -2 8 8 9 11 21 7 27 -4 6
-1 9 7 8 7 -2 12 2 11 9 -2 6 7 15 18 18 16 5 20 13 16 31 -2 14 1 24 7 24 6
0 4 5 -4 10 -11 7 -11 10 -2 10 10 0 10 5 2 20 -9 16 -8 20 7 21 16 0 16 1 -2
9 -11 5 -15 9 -10 10 6 1 -1 5 -15 9 -14 4 -24 13 -22 20 1 7 -2 10 -8 6 -5
-3 -10 -1 -10 5 0 6 -4 9 -9 6 -10 -7 -47 32 -38 41 4 3 -1 12 -11 20 -11 9
-11 12 -2 7 12 -6 13 -4 3 7 -15 16 -17 33 -3 24 6 -3 7 1 4 9 -3 9 -11 13
-17 9 -6 -4 -7 -1 -2 8 12 18 14 49 4 49 -5 0 -4 11 1 25 7 18 6 25 -3 25 -8
0 -7 4 3 10 13 9 13 10 0 10 -13 0 -13 1 0 10 8 5 10 10 5 10 -6 0 -10 18 -10
40 0 22 4 40 9 40 5 0 3 6 -3 14 -8 10 -9 16 -1 21 7 4 7 12 0 25 -7 13 -6 20
3 24 8 3 7 8 -5 16 -17 10 -17 12 0 37 16 26 16 27 -3 19 -15 -5 -17 -4 -8 5
6 6 9 18 6 26 -3 8 0 19 8 24 11 7 10 9 -4 9 -12 0 -15 4 -11 12 11 17 11 99
1 122 -6 12 -6 16 2 12 7 -5 10 4 8 26 -2 18 1 39 6 45 6 9 5 13 -3 13 -10 0
-10 3 -1 14 9 10 9 15 1 18 -17 5 -1 58 17 58 13 0 13 2 2 17 -10 11 -10 14
-1 9 8 -5 12 1 14 21 2 46 3 51 11 59 4 4 7 16 7 26 0 11 4 16 11 12 8 -4 8 0
0 15 -8 15 -9 21 -1 21 6 0 8 5 5 10 -3 6 -1 10 5 10 6 0 8 5 5 10 -4 6 -1 18
6 26 6 8 9 17 6 21 -3 3 1 19 9 35 8 16 12 34 8 40 -5 7 -3 8 6 3 10 -6 12 -4
7 8 -3 9 -1 19 4 23 6 3 9 15 6 25 -3 11 -2 17 3 14 4 -3 11 2 14 11 4 10 2
13 -7 9 -6 -4 -5 -1 4 7 18 14 17 13 25 45 4 13 11 20 17 16 6 -3 7 -1 3 5 -4
6 2 20 13 31 11 11 17 22 13 25 -3 3 0 6 7 6 7 0 10 4 7 9 -3 5 2 12 11 15 15
6 15 8 3 16 -10 7 -11 10 -2 10 6 0 11 3 11 8 -4 21 2 42 10 38 5 -4 8 2 7 11
-3 21 15 42 30 36 7 -2 15 1 20 8 4 8 3 10 -4 5 -7 -4 -12 -2 -12 4 0 7 7 9
16 6 9 -3 20 -6 25 -6 6 0 8 -4 4 -9 -3 -5 1 -15 8 -23 14 -13 17 -21 17 -39
0 -5 6 -7 13 -3 8 5 8 2 -2 -9 -9 -11 -10 -17 -2 -17 6 0 11 -9 11 -20 0 -11
4 -20 9 -20 5 0 12 -7 15 -16 4 -9 2 -13 -6 -8 -6 4 -3 -7 8 -25 10 -17 22
-31 26 -31 4 0 8 -6 8 -14 0 -8 15 -27 33 -41 17 -15 25 -23 17 -19 -13 7 -13
5 -1 -9 7 -9 18 -14 25 -10 6 4 4 -2 -4 -13 -8 -10 -10 -16 -6 -12 5 4 26 -10
47 -31 20 -22 40 -37 43 -34 3 3 4 -4 1 -15 -2 -15 0 -19 11 -15 9 3 14 -1 14
-13 0 -9 3 -15 6 -11 6 6 17 -2 59 -41 14 -13 25 -20 25 -16 0 3 9 -4 20 -17
10 -13 19 -20 20 -15 0 5 9 -1 20 -14 13 -15 20 -18 21 -9 0 8 4 4 9 -8 5 -13
16 -23 25 -23 8 0 15 -4 15 -10 0 -10 36 -50 45 -50 2 0 16 -12 30 -26 25 -25
26 -25 53 -8 15 10 39 29 53 43 15 14 39 38 55 52 39 35 74 77 74 89 0 6 5 10
10 10 6 0 10 7 10 16 0 8 4 13 9 9 5 -3 12 4 16 15 3 11 11 20 17 20 6 0 9 3
5 6 -6 6 38 103 52 114 12 10 49 85 61 125 7 22 20 56 30 75 18 35 27 58 28
73 0 5 9 15 19 24 10 8 12 12 6 8 -16 -8 -16 -3 -1 30 6 14 15 25 20 25 4 0 8
5 8 11 0 5 -6 7 -12 3 -9 -6 -9 -3 0 9 8 9 11 21 7 27 -3 5 -1 10 6 10 7 0 9
3 6 7 -4 3 -2 12 4 20 9 10 8 13 -2 13 -9 1 -8 5 5 15 11 9 14 15 7 15 -9 0
-8 5 3 16 19 19 21 28 4 18 -7 -4 -2 5 12 21 14 16 19 25 13 21 -9 -5 -11 -2
-7 8 3 9 10 16 16 16 5 0 6 5 3 10 -3 6 -1 10 5 10 6 0 9 4 5 9 -3 6 1 13 8
18 7 4 17 16 20 26 4 10 11 15 17 12 5 -3 7 0 4 8 -3 8 2 22 11 31 9 9 13 20
10 26 -3 5 -1 10 6 10 7 0 9 3 6 6 -3 4 1 16 11 28 18 23 100 120 117 140 6 6
26 31 44 56 19 25 41 52 50 60 19 18 111 168 111 182 0 5 4 7 9 4 4 -3 16 12
26 34 10 22 21 40 26 40 4 0 10 13 14 30 4 16 10 32 15 35 14 9 69 122 63 129
-4 3 -1 6 7 6 9 0 10 3 1 14 -9 11 -9 15 1 19 9 4 10 6 1 6 -7 1 -10 8 -6 18
5 13 2 15 -12 10 -15 -6 -16 -5 -6 7 9 11 9 16 0 22 -8 4 -9 3 -5 -4 4 -7 1
-12 -8 -12 -9 0 -16 4 -16 9 0 5 -14 14 -31 20 -27 9 -31 15 -27 41 3 17 0 30
-6 30 -6 0 -2 7 8 15 14 11 16 15 5 15 -9 0 -5 8 11 21 14 11 18 18 10 14 -8
-4 -6 1 4 9 11 9 23 16 28 16 4 0 8 5 8 11 0 5 -5 7 -12 3 -7 -5 -8 -3 -4 5 5
7 15 10 23 7 8 -3 12 -2 8 3 -3 5 2 16 10 24 16 17 20 32 6 23 -4 -3 -6 7 -4
22 2 15 5 33 5 40 1 6 6 12 12 12 5 0 1 7 -10 16 -10 8 -14 13 -7 10 15 -8 27
10 13 19 -8 5 -7 11 1 21 6 7 9 20 6 28 -3 8 -1 17 6 20 7 2 4 5 -5 5 -10 1
-18 7 -18 15 0 8 -5 18 -12 22 -7 4 -8 3 -4 -4 4 -7 3 -12 -3 -12 -5 0 -13 5
-16 10 -3 6 -18 10 -32 10 -15 0 -24 3 -20 6 8 8 -36 53 -46 47 -4 -2 -7 -1
-6 4 3 19 -2 33 -12 33 -5 0 -7 -4 -4 -10 3 -6 -1 -7 -9 -4 -9 3 -13 10 -10
15 3 5 -2 9 -10 9 -9 0 -16 6 -16 13 0 9 -2 9 -9 -1 -7 -11 -9 -11 -14 2 -4 9
-13 16 -22 16 -8 0 -15 6 -15 14 0 8 -7 16 -14 19 -11 4 -13 1 -9 -10 5 -13 2
-15 -12 -9 -11 4 -16 4 -12 0 4 -4 2 -13 -4 -21 -6 -7 -9 -13 -5 -13 3 0 -3
-9 -14 -20 -12 -12 -18 -25 -15 -30 4 -6 -4 -24 -16 -42 -13 -17 -18 -28 -11
-24 7 4 12 3 12 -2 0 -6 -7 -13 -16 -16 -9 -4 -14 -9 -11 -13 4 -3 -1 -12 -11
-20 -10 -9 -11 -11 -2 -7 12 7 13 5 3 -8 -7 -8 -9 -19 -5 -23 4 -5 1 -5 -5 -1
-8 4 -13 1 -13 -8 0 -9 -4 -16 -10 -16 -5 0 -10 -9 -10 -21 0 -11 -3 -18 -8
-15 -4 2 -12 -7 -19 -20 -6 -13 -7 -22 -2 -18 5 3 6 -2 3 -10 -3 -9 -10 -13
-15 -10 -5 3 -10 0 -10 -5 -1 -6 -2 -17 -3 -23 -1 -7 -7 -12 -14 -11 -6 2 -9
-4 -6 -12 4 -8 1 -15 -5 -15 -6 0 -11 -5 -11 -11 0 -5 6 -7 13 -3 8 5 8 3 -2
-9 -7 -9 -18 -14 -25 -10 -6 4 -5 -1 3 -10 9 -12 10 -17 2 -17 -7 0 -9 -4 -6
-10 3 -5 -1 -10 -9 -10 -9 0 -16 -7 -16 -16 0 -8 -4 -13 -9 -9 -5 3 -12 1 -16
-5 -4 -6 -11 -8 -16 -5 -5 3 -6 -2 -2 -11 4 -12 3 -15 -5 -10 -8 5 -12 0 -12
-14 0 -12 -4 -18 -10 -15 -6 4 -7 -1 -3 -11 5 -13 3 -15 -7 -9 -9 5 -11 4 -6
-3 4 -6 -2 -20 -14 -32 -11 -11 -20 -16 -20 -11 0 5 -7 12 -16 15 -9 4 -13 2
-8 -5 4 -7 1 -10 -7 -7 -8 3 -22 1 -33 -4 -13 -7 -16 -7 -12 1 7 11 -5 15 -38
11 -12 -1 -16 3 -11 10 6 9 2 9 -13 1 -26 -14 -35 -14 -26 0 4 7 -1 7 -15 -1
-15 -7 -26 -8 -34 -2 -15 12 -57 -2 -57 -19 0 -8 -4 -8 -13 0 -10 8 -17 7 -27
-2 -8 -8 -11 -8 -7 -1 8 14 -20 27 -35 17 -6 -3 -8 -1 -4 5 3 6 2 13 -4 17 -5
3 -10 0 -10 -7 0 -10 -2 -10 -9 1 -5 7 -14 10 -20 7 -6 -4 -11 -2 -11 4 0 6
-4 8 -10 5 -5 -3 -10 -2 -10 4 0 6 -7 7 -17 4 -12 -5 -14 -3 -8 7 6 10 4 12
-7 7 -9 -3 -19 -3 -23 1 -9 10 -55 10 -55 0 0 -4 -5 -8 -11 -8 -5 0 -7 6 -4
13 4 6 0 4 -8 -6 -11 -13 -17 -15 -22 -7 -6 9 -10 9 -16 -1 -6 -11 -11 -11
-21 -1 -15 15 -32 16 -23 1 4 -6 -2 -5 -13 2 -12 7 -19 16 -16 20 2 4 -5 5
-16 2 -11 -3 -17 -10 -13 -17 4 -7 1 -7 -7 1 -11 10 -16 9 -27 -5 -8 -9 -12
-12 -9 -6 4 7 -9 11 -37 10 -23 -1 -48 2 -54 7 -7 5 -13 6 -13 1 0 -5 -18 -9
-40 -9 -22 0 -40 5 -40 10 0 6 -4 4 -9 -3 -7 -11 -11 -10 -24 2 -9 9 -18 12
-22 7 -3 -6 -13 -7 -22 -4 -12 5 -14 3 -8 -8 8 -12 6 -12 -8 0 -13 10 -17 10
-17 1 0 -10 -3 -10 -15 0 -10 8 -15 9 -15 2 0 -6 -6 -9 -12 -7 -34 12 -68 13
-68 2 0 -7 -4 -6 -10 3 -5 8 -10 10 -10 4 0 -6 -13 -9 -30 -6 -18 3 -27 9 -23
16 4 7 1 7 -7 -1 -9 -9 -19 -9 -33 -2 -14 8 -18 8 -13 0 4 -6 2 -11 -3 -11 -6
0 -11 5 -11 11 0 17 -36 -33 -42 -59 -4 -12 -2 -20 3 -16 5 3 9 0 9 -6 0 -6 4
-9 9 -6 4 3 25 -3 45 -14 21 -10 45 -16 53 -13 11 4 14 2 9 -5 -9 -15 -5 -15
29 -2 14 5 24 7 22 2 -6 -9 87 -7 102 2 6 4 11 3 11 -3 0 -7 8 -7 25 -1 16 6
25 6 25 0 0 -6 5 -10 11 -10 5 0 7 5 4 11 -4 6 2 5 13 -2 12 -7 18 -17 15 -23
-3 -5 -1 -6 6 -2 6 4 9 11 6 16 -3 4 2 10 10 14 8 3 15 0 15 -6 0 -7 5 -6 15
2 11 9 15 9 15 1 0 -9 5 -9 20 -1 15 8 20 8 20 -1 0 -9 3 -9 14 0 9 8 16 8 20
2 4 -6 -5 -18 -19 -27 -14 -9 -22 -21 -18 -28 4 -6 -1 -5 -11 3 -15 13 -18 12
-23 -7 -3 -12 -9 -19 -14 -16 -5 3 -13 -6 -18 -19 -6 -14 -18 -31 -29 -38 -10
-8 -18 -22 -16 -32 1 -9 -1 -15 -6 -12 -4 3 -14 -3 -21 -12 -12 -14 -12 -16 1
-9 8 4 6 0 -5 -9 -11 -8 -21 -12 -23 -6 -2 5 -12 7 -22 4 -11 -3 -20 -1 -20 4
0 5 -8 9 -18 10 -30 2 -47 8 -53 17 -4 4 -23 9 -42 9 -20 1 -35 6 -34 12 1 5
-6 9 -15 7 -10 -2 -18 2 -18 7 0 6 -7 7 -17 4 -9 -4 -14 -2 -10 3 3 6 -7 9
-24 8 -16 -1 -29 3 -29 9 0 7 -4 7 -12 -1 -17 -17 -31 -15 -24 4 4 10 2 13 -7
7 -20 -12 -37 -12 -37 0 0 7 -5 5 -10 -3 -5 -8 -10 -10 -10 -5 0 6 -16 10 -35
10 -19 0 -35 -4 -35 -10 0 -5 -5 -3 -10 5 -5 8 -10 11 -10 5 0 -5 -19 -9 -42
-8 -24 0 -49 -4 -57 -10 -12 -10 -13 -9 -6 3 7 13 6 13 -7 2 -11 -9 -18 -10
-23 -2 -3 6 -10 8 -15 5 -12 -7 -41 5 -35 15 3 5 -2 16 -11 24 -8 9 -11 16 -5
16 6 0 11 6 11 13 0 36 106 111 161 113 46 2 75 13 103 39 14 13 26 27 26 30
0 3 1 8 1 13 1 4 3 25 5 47 1 22 5 63 8 90 3 28 5 58 5 67 1 9 7 23 14 30 46
45 48 100 7 148 -16 19 -30 43 -30 54 0 11 -5 16 -14 13 -10 -4 -12 0 -9 14 3
10 0 19 -6 19 -6 0 -10 3 -9 8 1 4 -3 24 -10 45 -8 29 -8 44 0 57 14 21 102
80 121 80 7 0 17 3 21 8 4 4 11 7 14 8 8 1 64 25 129 55 24 10 47 19 51 19 5
0 36 13 68 30 32 16 64 30 70 30 6 0 16 6 22 13 9 11 4 13 -24 10 -20 -1 -43
-8 -52 -15 -13 -11 -14 -11 -8 1 6 9 2 9 -15 -2 -13 -9 -28 -17 -34 -18 -22
-4 -75 -33 -75 -41 0 -5 -5 -6 -10 -3 -6 4 -9 1 -8 -5 2 -7 -5 -14 -14 -15
-10 -2 -18 2 -18 8 0 8 -3 7 -9 -1 -4 -8 -11 -13 -15 -13 -24 3 -38 -2 -54
-19 -10 -11 -32 -22 -48 -24 -16 -2 -51 -11 -77 -20 -40 -14 -51 -15 -65 -4
-24 18 -32 31 -26 40 3 4 0 8 -5 8 -6 0 -10 3 -9 8 4 15 -13 50 -27 56 -8 3
-15 13 -15 21 0 9 -4 13 -10 10 -5 -3 -10 3 -10 15 0 12 -4 19 -8 16 -5 -3
-16 11 -25 30 -10 19 -22 32 -27 29 -5 -3 -7 1 -4 9 4 11 0 13 -15 9 -12 -3
-21 -1 -21 6 0 6 -12 11 -26 11 -14 0 -32 7 -40 15 -17 17 -39 21 -29 5 3 -6
-1 -7 -9 -4 -9 3 -16 10 -16 14 0 10 -20 8 -39 -4 -11 -7 -13 -5 -8 7 3 10 5
17 4 16 -1 0 -14 -4 -29 -9z m1807 -1150 c9 8 15 8 20 0 3 -6 11 -8 16 -5 5 3
6 -1 3 -10 -6 -14 -8 -14 -21 2 -14 17 -14 17 -9 0 5 -17 -19 -54 -33 -50 -3
0 -5 -4 -3 -10 1 -7 -5 -3 -13 7 -13 17 -15 17 -15 4 0 -9 -5 -20 -12 -24 -7
-4 -8 -3 -4 4 4 7 2 12 -3 12 -6 0 -11 -5 -11 -11 0 -5 -4 -7 -10 -4 -5 3 -10
1 -10 -6 0 -7 -3 -9 -7 -6 -3 4 -12 -1 -20 -11 -12 -16 -13 -16 -7 3 5 19 5
19 -10 1 -8 -10 -20 -15 -27 -10 -8 5 -10 3 -4 -6 6 -10 4 -12 -8 -7 -10 3
-17 2 -17 -4 0 -6 -4 -8 -9 -4 -5 3 -13 0 -16 -6 -4 -5 -14 -8 -22 -5 -11 5
-13 2 -9 -10 5 -14 4 -15 -9 -4 -12 10 -15 10 -15 0 0 -7 -8 -10 -20 -7 -11 3
-18 2 -15 -3 7 -11 -22 -21 -42 -13 -10 4 -14 2 -10 -4 3 -5 -10 -15 -29 -21
-30 -9 -33 -8 -23 4 6 7 16 11 23 7 6 -4 4 2 -4 12 -8 10 -10 16 -3 12 6 -4
18 0 26 8 9 8 20 15 26 15 6 0 11 7 11 15 0 8 8 15 18 15 14 0 15 2 2 10 -13
8 -13 10 1 10 9 0 23 8 30 18 13 16 13 16 -6 2 -19 -14 -19 -14 -6 3 7 9 21
17 30 17 9 0 22 9 29 20 7 12 17 18 22 15 6 -3 10 0 10 7 0 8 3 9 8 3 8 -11
39 -12 65 0 9 4 31 5 47 3 17 -3 30 0 30 5 0 5 9 7 20 4 11 -3 20 0 21 6 0 8
2 7 6 -1 4 -9 8 -10 18 -2z m-389 -22 c-9 -5 -16 -15 -16 -23 0 -9 -6 -12 -17
-8 -10 3 -15 3 -11 -2 4 -4 0 -14 -8 -22 -8 -9 -13 -22 -10 -30 3 -8 2 -11 -3
-8 -11 6 -121 -99 -121 -115 0 -6 -13 -13 -30 -16 -17 -4 -27 -11 -23 -17 4
-6 1 -7 -8 -1 -14 9 -17 10 -41 13 -7 2 -4 6 7 11 12 5 14 9 6 9 -11 1 -10 5
5 17 10 8 12 13 4 9 -8 -4 -6 1 4 9 11 9 15 16 8 16 -6 0 -1 11 11 25 12 13
33 38 47 54 13 16 28 28 31 25 4 -2 10 3 13 12 4 9 13 14 21 10 8 -3 15 -1 15
3 0 5 11 8 24 7 19 -2 23 1 19 18 -4 17 -3 18 6 6 10 -13 11 -13 11 0 0 13 1
13 10 0 8 -12 10 -12 15 2 4 10 14 14 27 10 18 -4 18 -6 4 -14z m274 -309 c-6
-11 -15 -17 -19 -15 -5 3 -7 -6 -5 -19 1 -14 -2 -23 -7 -19 -5 3 -9 -2 -9 -10
0 -8 -9 -18 -20 -21 -11 -4 -18 -11 -15 -16 4 -5 -1 -9 -10 -9 -9 0 -13 -4
-10 -10 6 -9 -8 -15 -29 -11 -5 1 -4 -5 4 -13 8 -11 9 -16 1 -16 -6 0 -11 -7
-11 -16 0 -8 -4 -12 -10 -9 -5 3 -11 -1 -11 -9 -3 -34 -5 -38 -20 -49 -9 -7
-18 -16 -20 -22 -2 -5 -8 -9 -13 -7 -5 2 -3 -5 4 -15 8 -10 11 -15 6 -11 -10
8 -36 -14 -29 -25 3 -4 -5 -16 -16 -26 -23 -20 -28 -36 -8 -26 6 4 3 -1 -7 -9
-11 -9 -16 -16 -12 -16 5 0 3 -7 -4 -15 -10 -12 -9 -16 5 -21 12 -5 13 -9 5
-14 -8 -5 -1 -12 18 -21 17 -7 28 -17 26 -21 -3 -4 -1 -8 5 -8 5 0 23 -12 38
-27 15 -14 22 -23 16 -19 -8 4 -13 2 -13 -6 0 -9 -3 -9 -10 2 -6 10 -10 11
-10 2 0 -21 -56 -103 -65 -95 -4 5 -5 0 -2 -9 4 -10 2 -18 -3 -18 -5 0 -7 -6
-4 -13 2 -7 -6 -24 -18 -37 l-23 -24 -9 27 c-6 15 -14 27 -19 27 -5 0 -3 8 4
17 8 9 9 14 3 10 -6 -3 -18 3 -27 14 -10 11 -12 19 -5 19 6 0 1 8 -10 19 -12
10 -19 21 -15 25 3 3 1 6 -5 6 -7 0 -12 6 -12 14 0 8 -5 18 -12 22 -7 5 -8 3
-3 -6 5 -8 4 -11 -3 -6 -6 4 -8 14 -5 23 5 12 3 14 -7 8 -9 -6 -11 -4 -6 4 5
7 0 19 -10 27 -11 9 -13 13 -6 9 6 -3 12 -1 12 4 0 6 -4 11 -10 11 -5 0 -10 7
-10 16 0 8 -4 13 -9 9 -6 -3 -15 4 -21 15 -6 11 -15 18 -21 15 -5 -4 -9 1 -9
9 0 9 -6 16 -12 16 -9 0 -8 4 2 10 13 9 13 11 0 20 -14 9 -7 15 14 11 5 -1 6
4 4 11 -6 16 46 70 57 60 5 -4 5 1 2 11 -4 11 -3 16 4 12 5 -4 16 -1 24 5 8 6
19 9 25 5 6 -4 9 -1 8 7 -2 7 3 12 11 10 9 -2 11 3 7 13 -3 9 -2 13 3 10 6 -3
15 3 21 12 11 16 11 16 6 -2 -5 -18 -5 -18 7 -4 6 9 22 19 34 23 11 4 24 14
27 22 3 8 10 13 15 10 5 -3 12 1 15 10 4 9 13 14 21 10 8 -3 14 -1 12 5 -1 5
12 17 28 27 17 9 32 20 33 25 2 4 8 5 13 1 5 -3 12 2 15 11 5 12 9 13 20 4 12
-9 13 -9 9 3 -3 8 2 21 12 29 17 13 17 13 4 -6 -8 -11 -3 -9 10 5 13 14 30 25
37 26 29 2 33 5 26 16 -4 7 -3 8 4 4 9 -5 9 -13 2 -27z"/>
<path d="M3215 3689 c-4 -6 -5 -12 -2 -15 2 -3 7 2 10 11 7 17 1 20 -8 4z"/>
<path d="M3279 3643 c-13 -16 -12 -17 4 -4 16 13 21 21 13 21 -2 0 -10 -8 -17
-17z"/>
<path d="M990 2561 c0 -6 4 -13 10 -16 6 -3 7 1 4 9 -7 18 -14 21 -14 7z"/>
</g>
</svg>
