<?xml version="1.0" standalone="no"?>
<!DOCTYPE svg PUBLIC "-//W3C//DTD SVG 20010904//EN"
 "http://www.w3.org/TR/2001/REC-SVG-20010904/DTD/svg10.dtd">
<svg version="1.0" xmlns="http://www.w3.org/2000/svg"
 width="239.000000pt" height="239.000000pt" viewBox="0 0 239.000000 239.000000"
 preserveAspectRatio="xMidYMid meet">
<metadata>
Created by potrace 1.11, written by Peter Selinger 2001-2013
</metadata>
<g transform="translate(0.000000,239.000000) scale(0.100000,-0.100000)"
fill="#000000" stroke="none">
<path d="M889 2336 c-2 -2 -26 -7 -54 -10 -166 -21 -190 -35 -240 -135 -31
-61 -34 -116 -11 -172 14 -34 14 -36 -10 -54 -28 -21 -33 -51 -6 -40 52 20 69
18 81 -13 7 -17 21 -38 32 -48 10 -9 19 -22 19 -29 0 -21 -110 -61 -215 -79
-102 -18 -134 -28 -178 -59 -38 -26 -76 -88 -79 -129 -4 -49 20 -120 53 -159
106 -122 166 -205 170 -236 1 -5 12 -32 25 -62 13 -29 24 -56 24 -60 0 -3 11
-27 25 -53 66 -125 89 -335 46 -417 -6 -11 -11 -24 -10 -28 1 -4 0 -10 -1 -13
-19 -50 -25 -139 -21 -315 2 -45 -5 -95 -18 -142 -12 -40 -21 -75 -21 -78 0
-3 169 -5 376 -5 353 0 375 1 370 18 -3 9 -12 46 -21 82 -9 36 -30 105 -47
154 -29 86 -30 90 -14 118 30 49 28 69 -6 98 l-31 26 -4 135 c-2 73 -3 148 -2
164 2 64 6 91 12 105 4 8 13 43 21 78 8 35 20 70 26 78 7 8 10 14 6 14 -8 0
72 158 84 165 5 3 22 -22 38 -57 18 -40 50 -85 88 -123 71 -72 169 -155 182
-155 6 0 34 26 63 58 60 64 125 187 159 297 34 114 57 154 141 260 72 91 108
145 146 223 35 69 34 84 -3 101 -29 13 -27 48 5 83 12 12 22 34 23 50 4 78 3
83 -16 86 -10 2 -32 17 -49 33 -16 16 -36 29 -43 29 -7 0 -14 6 -17 13 -6 17
-8 14 -77 -118 -34 -66 -69 -127 -78 -136 -10 -9 -25 -26 -34 -37 -13 -16 -25
-20 -50 -16 -18 3 -43 6 -56 8 -12 2 -25 0 -27 -5 -6 -9 -28 -6 -70 12 -20 8
-100 13 -232 14 -167 2 -203 0 -207 -11 -9 -24 42 -37 146 -38 53 -1 100 -5
104 -9 4 -4 2 -7 -5 -7 -14 0 -76 -60 -83 -80 -3 -9 -13 -8 -41 3 -20 9 -37
13 -37 10 0 -3 -6 -1 -12 5 -23 18 -149 33 -184 21 -16 -6 -44 2 -62 17 -2 1
1 12 7 23 14 24 59 50 83 46 33 -6 61 50 60 119 -1 10 5 28 13 40 14 21 10 66
-5 66 -4 0 -15 19 -24 41 -16 39 -16 43 0 60 9 10 25 21 35 24 11 4 19 11 19
17 0 6 -7 7 -17 3 -50 -21 -57 -18 -98 45 -35 53 -45 62 -89 75 -51 15 -70 18
-77 11z m878 -550 c-2 -6 -30 -21 -63 -35 -71 -29 -126 -52 -136 -58 -19 -11
-4 10 37 50 37 37 50 44 79 42 20 -1 40 2 46 5 17 10 41 8 37 -4z m-201 -11
c-9 -9 -19 -21 -23 -28 -5 -7 -25 -28 -46 -46 -25 -24 -40 -32 -47 -25 -15 15
29 76 70 96 46 22 67 24 46 3z m144 -130 c0 -2 -13 -19 -28 -37 -16 -18 -48
-64 -71 -103 l-42 -70 32 -26 c18 -14 27 -28 21 -30 -6 -2 -22 -23 -35 -47
l-24 -43 -33 58 c-18 32 -44 71 -57 87 -21 25 -22 31 -10 49 8 12 22 26 33 31
10 6 21 13 24 16 7 8 182 120 186 120 2 0 4 -2 4 -5z"/>
<path d="M1276 2256 c-27 -13 -59 -27 -72 -30 -13 -4 -24 -11 -24 -17 0 -12
-2 -13 88 26 34 15 62 32 62 36 0 12 0 12 -54 -15z"/>
</g>
</svg>
